<mxfile host="65bd71144e">
    <diagram id="5o1vi7zhXlaoLso9c_WA" name="第 1 页">
        <mxGraphModel dx="666" dy="449" grid="1" gridSize="10" guides="0" tooltips="1" connect="0" arrows="1" fold="1" page="1" pageScale="1" pageWidth="827" pageHeight="1169" math="0" shadow="0">
            <root>
                <mxCell id="0"/>
                <mxCell id="1" parent="0"/>
                <mxCell id="6" value="w/ map" style="edgeStyle=none;html=1;exitX=0.5;exitY=1;exitDx=0;exitDy=0;entryX=0.5;entryY=0;entryDx=0;entryDy=0;fontFamily=mono;align=center;" parent="1" source="2" target="3" edge="1">
                    <mxGeometry relative="1" as="geometry"/>
                </mxCell>
                <mxCell id="7" value="w/o map" style="edgeStyle=none;html=1;exitX=0.5;exitY=1;exitDx=0;exitDy=0;entryX=0.5;entryY=0;entryDx=0;entryDy=0;fontFamily=mono;align=center;" parent="1" source="2" target="4" edge="1">
                    <mxGeometry relative="1" as="geometry"/>
                </mxCell>
                <mxCell id="2" value="mov $1, %rax" style="rounded=0;whiteSpace=wrap;html=1;fillColor=#f5f5f5;fontColor=#333333;strokeColor=none;fontFamily=mono;align=left;" parent="1" vertex="1">
                    <mxGeometry x="230" y="230" width="80" height="20" as="geometry"/>
                </mxCell>
                <mxCell id="3" value="&lt;i&gt;&lt;u&gt;Host&lt;/u&gt;&lt;/i&gt;" style="rounded=0;whiteSpace=wrap;html=1;fillColor=#f5f5f5;fontColor=#333333;strokeColor=none;fontFamily=mono;align=center;" parent="1" vertex="1">
                    <mxGeometry x="140" y="290" width="90" height="20" as="geometry"/>
                </mxCell>
                <mxCell id="4" value="&lt;u&gt;&lt;i&gt;Host&lt;/i&gt;&lt;/u&gt;" style="rounded=0;whiteSpace=wrap;html=1;strokeColor=none;fillColor=#f5f5f5;fontColor=#333333;fontFamily=mono;align=center;" parent="1" vertex="1">
                    <mxGeometry x="280" y="290" width="140" height="20" as="geometry"/>
                </mxCell>
                <mxCell id="10" value="mov $1, %reg1" style="rounded=0;whiteSpace=wrap;html=1;fillColor=#f5f5f5;fontColor=#333333;strokeColor=none;fontFamily=mono;align=left;" parent="1" vertex="1">
                    <mxGeometry x="140" y="310" width="90" height="50" as="geometry"/>
                </mxCell>
                <mxCell id="11" value="load %tmp1, (&amp;amp;struct_rax)&lt;br&gt;mov $1, %tmp1&lt;br&gt;store %tmp1, (&amp;amp;struct_rax)" style="rounded=0;whiteSpace=wrap;html=1;strokeColor=none;fillColor=#f5f5f5;fontColor=#333333;fontFamily=mono;align=left;" parent="1" vertex="1">
                    <mxGeometry x="280" y="310" width="140" height="50" as="geometry"/>
                </mxCell>
                <mxCell id="KtPXSwPWD70xqrMkPsjw-11" value="&lt;u&gt;&lt;i&gt;Guest&lt;/i&gt;&lt;/u&gt;" style="rounded=0;whiteSpace=wrap;html=1;fillColor=#f5f5f5;fontColor=#333333;strokeColor=none;fontFamily=mono;align=center;" parent="1" vertex="1">
                    <mxGeometry x="230" y="210" width="80" height="20" as="geometry"/>
                </mxCell>
            </root>
        </mxGraphModel>
    </diagram>
</mxfile>